<svg width="800" height="500" viewBox="0 0 800 500" fill="none" xmlns="http://www.w3.org/2000/svg">
  <rect width="800" height="500" fill="#F8F4EA"/>
  <path d="M156 296L202 244L258 232L314 208L372 218L426 200L480 214L536 226L588 256L618 292L602 324L542 336L484 340L426 360L362 350L298 336L236 326L186 316L156 296Z" fill="#D8E1D5" stroke="#8CA08F" stroke-width="4"/>
  <circle cx="368" cy="278" r="20" fill="#D86A2F"/>
  <circle cx="432" cy="264" r="16" fill="#113C3F"/>
  <circle cx="332" cy="258" r="14" fill="#113C3F"/>
  <circle cx="472" cy="286" r="12" fill="#113C3F"/>
  <path d="M332 258L368 278L432 264L472 286" stroke="#113C3F" stroke-width="6" stroke-linecap="round" stroke-dasharray="10 10"/>
  <rect x="74" y="72" width="234" height="52" rx="26" fill="#ECE4D3"/>
</svg>
